<?xml version="1.0" encoding="UTF-8" standalone="no"?>
<svg
   version="1.1"
   width="252.903"
   height="252.903"
   viewBox="0 0 252.903 252.903"
   xml:space="preserve"
   xmlns="http://www.w3.org/2000/svg"
   xmlns:svg="http://www.w3.org/2000/svg">
<path
   d="m 60.104034,78.279404 q 2.560008,0 4.480014,1.920006 2.026673,1.813339 2.026673,4.586681 v 61.653529 q 0,2.77334 -2.026673,4.69335 -2.026673,1.81333 -4.693348,1.81333 -2.986676,0 -4.800015,-1.81333 -1.813339,-1.92001 -1.813339,-4.69335 V 84.786091 q 0,-2.773342 1.920006,-4.586681 1.920006,-1.920006 4.906682,-1.920006 z m 47.253476,0 q 2.98668,0 4.80002,1.920006 1.81334,1.813339 1.81334,4.586681 v 61.653529 q 0,2.77334 -1.92001,4.69335 -1.81334,1.81333 -4.90668,1.81333 -2.56001,0 -4.58668,-1.81333 -1.92001,-1.92001 -1.92001,-4.69335 V 84.786091 q 0,-2.773342 2.02668,-4.586681 2.02667,-1.920006 4.69334,-1.920006 z M 59.784033,109.3195 h 47.573477 v 12.26671 H 59.784033 Z M 171.971,78.279404 q 7.68003,0 13.65338,2.880009 5.97335,2.880009 10.0267,8.106692 4.16001,5.120016 6.18668,11.946705 2.13334,6.72002 2.13334,14.40004 0,10.3467 -3.73334,18.88006 -3.73335,8.4267 -10.88004,13.44005 -7.04002,5.01334 -17.38672,5.01334 h -25.49341 q -2.77334,0 -4.69335,-1.81333 -1.81334,-1.92001 -1.81334,-4.69335 V 84.786091 q 0,-2.773342 1.81334,-4.586681 1.92001,-1.920006 4.69335,-1.920006 z m -1.06667,62.400196 q 6.72002,0 10.9867,-3.41334 4.26668,-3.52002 6.18669,-9.17337 2.02667,-5.76001 2.02667,-12.48004 0,-5.01334 -1.17333,-9.49336 -1.06667,-4.58668 -3.41335,-8.000024 -2.34667,-3.520011 -5.97335,-5.546684 -3.62668,-2.026673 -8.64003,-2.026673 h -18.66672 l 1.06667,-0.960003 v 52.266834 l -0.64,-1.17334 z m 76.31385,-87.29372 h -5.83356 c -3.13877,0 -5.68182,2.54586 -5.68182,5.68182 0,3.13877 2.54586,5.68182 5.68182,5.68182 h 0.14893 v 136.7627 l -86.79809,-0.29224 c -5.64248,0.23042 -10.44477,1.72253 -14.22984,4.40327 -1.65509,1.14648 -4.75452,2.74537 -6.91822,0.60977 -1.47806,-1.45839 -2.1356,-4.36393 -0.57886,-6.68499 4.32459,-5.87009 9.05944,-9.26738 20.48771,-9.26738 h 73.95077 c 3.13877,0 5.68182,-2.54586 5.68182,-5.68182 V 39.94003 c 0,-3.13877 -2.54586,-5.68182 -5.68182,-5.68182 h -73.95077 c -13.9376,0 -22.1709,4.09136 -27.04625,9.19432 -4.87254,-5.10296 -13.10865,-9.19432 -27.043443,-9.19432 H 25.45298 c -3.13877,0 -5.68182,2.54586 -5.68182,5.68182 v 144.6588 c 0,3.13877 2.54586,5.68182 5.68182,5.68182 h 73.953577 c 11.422653,0 16.163123,3.4001 20.350023,9.07349 1.69162,2.51495 1.03689,5.42049 -0.44398,6.87888 -2.16651,2.1356 -5.26313,0.53952 -6.87326,-0.57886 -3.83284,-2.71165 -8.63513,-4.20376 -14.5277,-4.4398 l -86.54519,0.30067 V 64.75233 h 0.15174 c 3.13877,0 5.68182,-2.54586 5.68182,-5.68182 0,-3.13877 -2.54586,-5.68182 -5.68182,-5.68182 H 5.68182 C 2.54586,53.38589 0,55.92893 0,59.0677 v 148.14882 c 0,1.50897 0.60134,2.95893 1.67195,4.02673 1.07061,1.06218 2.39693,1.65228 4.02954,1.6579 L 97.69808,212.578 c 3.41134,0.1405 6.16233,0.93573 8.22206,2.3885 3.54341,2.45594 7.31162,3.67829 10.89718,3.67829 3.5406,0 6.86483,-1.25607 9.63549,-3.63052 2.76504,2.37164 6.08646,3.6249 9.62425,3.6249 3.59399,0 7.38468,-1.22797 10.95338,-3.70358 2.01196,-1.42467 4.76295,-2.21709 7.92139,-2.35197 l 92.24949,0.31753 h 0.0197 c 1.50335,0 2.94769,-0.59572 4.01268,-1.6579 1.0678,-1.0678 1.66914,-2.51776 1.66914,-4.02673 V 59.0677 c -0.003,-3.13877 -2.54867,-5.68182 -5.68463,-5.68182 z M 99.406557,178.91701 H 31.13761 V 45.62747 h 68.268947 c 16.345773,0 20.108353,6.412436 21.361623,9.52028 1.00015,2.480157 2.69349,4.097507 5.68182,4.108666 2.98712,0.01115 4.64662,-1.467548 5.68182,-3.819039 1.35312,-3.07367 5.05238,-9.812717 21.36162,-9.812717 h 68.26614 v 133.29235 h -68.26333 c -14.33381,0 -21.89833,4.93717 -27.03501,10.69486 -5.058,-5.69025 -12.62533,-10.69486 -27.054683,-10.69486 z" /></svg>