<?xml version="1.0" encoding="UTF-8" standalone="no"?>
<svg
   version="1.1"
   width="252.903"
   height="252.903"
   viewBox="0 0 252.903 252.903"
   xml:space="preserve"
   id="svg9"
   sodipodi:docname="favicon-with-font.svg"
   inkscape:version="1.3.2 (091e20ef0f, 2023-11-25)"
   xmlns:inkscape="http://www.inkscape.org/namespaces/inkscape"
   xmlns:sodipodi="http://sodipodi.sourceforge.net/DTD/sodipodi-0.dtd"
   xmlns="http://www.w3.org/2000/svg"
   xmlns:svg="http://www.w3.org/2000/svg"><sodipodi:namedview
   id="namedview9"
   pagecolor="#ffffff"
   bordercolor="#000000"
   borderopacity="0.25"
   inkscape:showpageshadow="2"
   inkscape:pageopacity="0.0"
   inkscape:pagecheckerboard="0"
   inkscape:deskcolor="#d1d1d1"
   inkscape:zoom="0.41162109"
   inkscape:cx="513.82207"
   inkscape:cy="523.53974"
   inkscape:window-width="1920"
   inkscape:window-height="1043"
   inkscape:window-x="1920"
   inkscape:window-y="0"
   inkscape:window-maximized="1"
   inkscape:current-layer="svg9" />

<defs
   id="defs1">

	
	
	
	
	
	
	
	
	
</defs>

<path
   d="m 247.21818,53.38588 h -5.83356 c -3.13877,0 -5.68182,2.54586 -5.68182,5.68182 0,3.13877 2.54586,5.68182 5.68182,5.68182 h 0.14893 v 136.7627 l -86.79809,-0.29224 c -5.64248,0.23042 -10.44477,1.72253 -14.22984,4.40327 -1.65509,1.14648 -4.75452,2.74537 -6.91822,0.60977 -1.47806,-1.45839 -2.1356,-4.36393 -0.57886,-6.68499 4.32459,-5.87009 9.05944,-9.26738 20.48771,-9.26738 h 73.95077 c 3.13877,0 5.68182,-2.54586 5.68182,-5.68182 V 39.94003 c 0,-3.13877 -2.54586,-5.68182 -5.68182,-5.68182 h -73.95077 c -13.9376,0 -22.1709,4.09136 -27.04625,9.19432 -4.87254,-5.10296 -13.10865,-9.19432 -27.043443,-9.19432 H 25.45298 c -3.13877,0 -5.68182,2.54586 -5.68182,5.68182 v 144.6588 c 0,3.13877 2.54586,5.68182 5.68182,5.68182 h 73.953577 c 11.422653,0 16.163123,3.4001 20.350023,9.07349 1.69162,2.51495 1.03689,5.42049 -0.44398,6.87888 -2.16651,2.1356 -5.26313,0.53952 -6.87326,-0.57886 -3.83284,-2.71165 -8.63513,-4.20376 -14.5277,-4.4398 l -86.54519,0.30067 V 64.75233 h 0.15174 c 3.13877,0 5.68182,-2.54586 5.68182,-5.68182 0,-3.13877 -2.54586,-5.68182 -5.68182,-5.68182 H 5.68182 C 2.54586,53.38589 0,55.92893 0,59.0677 v 148.14882 c 0,1.50897 0.60134,2.95893 1.67195,4.02673 1.07061,1.06218 2.39693,1.65228 4.02954,1.6579 L 97.69808,212.578 c 3.41134,0.1405 6.16233,0.93573 8.22206,2.3885 3.54341,2.45594 7.31162,3.67829 10.89718,3.67829 3.5406,0 6.86483,-1.25607 9.63549,-3.63052 2.76504,2.37164 6.08646,3.6249 9.62425,3.6249 3.59399,0 7.38468,-1.22797 10.95338,-3.70358 2.01196,-1.42467 4.76295,-2.21709 7.92139,-2.35197 l 92.24949,0.31753 h 0.0197 c 1.50335,0 2.94769,-0.59572 4.01268,-1.6579 1.0678,-1.0678 1.66914,-2.51776 1.66914,-4.02673 V 59.0677 c -0.003,-3.13877 -2.54867,-5.68182 -5.68463,-5.68182 z M 99.406557,178.91701 H 31.13761 V 45.62747 h 68.268947 c 16.345773,0 20.108353,6.412436 21.361623,9.52028 1.00015,2.480157 2.69349,4.097507 5.68182,4.108666 2.98712,0.01115 4.64662,-1.467548 5.68182,-3.819039 1.35312,-3.07367 5.05238,-9.812717 21.36162,-9.812717 h 68.26614 v 133.29235 h -68.26333 c -14.33381,0 -21.89833,4.93717 -27.03501,10.69486 -5.058,-5.69025 -12.62533,-10.69486 -27.054683,-10.69486 z"
   style="fill:#000000;fill-rule:nonzero;stroke:none;stroke-width:2.81;stroke-linecap:butt;stroke-linejoin:miter;stroke-miterlimit:10;stroke-dasharray:none"
   stroke-linecap="round"
   id="path1"
   sodipodi:nodetypes="csssccccccsssssscssssssccccccssscssccccscscccscscscsccsscssccscs" /><text
   xml:space="preserve"
   style="font-style:normal;font-variant:normal;font-weight:normal;font-stretch:normal;font-size:106.667px;font-family:Quicksand;-inkscape-font-specification:'Quicksand, @wght=700';font-variant-ligatures:normal;font-variant-caps:normal;font-variant-numeric:normal;font-variant-east-asian:normal;font-variation-settings:'wght' 700;letter-spacing:10px;fill:#000000"
   x="45.277321"
   y="152.9463"
   id="text9"><tspan
     sodipodi:role="line"
     id="tspan9"
     x="45.277321"
     y="152.9463"
     style="font-style:normal;font-variant:normal;font-weight:normal;font-stretch:normal;font-size:106.667px;font-family:Quicksand;-inkscape-font-specification:'Quicksand, @wght=700';font-variant-ligatures:normal;font-variant-caps:normal;font-variant-numeric:normal;font-variant-east-asian:normal;font-variation-settings:'wght' 700;letter-spacing:10px">HD</tspan></text></svg>
