<?xml version="1.0" encoding="UTF-8" standalone="no"?>
<svg
   version="1.1"
   width="491.38809"
   height="184.38658"
   viewBox="0 0 491.38809 184.38658"
   xml:space="preserve"
   id="svg9"
   sodipodi:docname="hello-dict-icon.svg"
   inkscape:version="1.3.2 (091e20ef0f, 2023-11-25)"
   xmlns:inkscape="http://www.inkscape.org/namespaces/inkscape"
   xmlns:sodipodi="http://sodipodi.sourceforge.net/DTD/sodipodi-0.dtd"
   xmlns="http://www.w3.org/2000/svg"
   xmlns:svg="http://www.w3.org/2000/svg"><sodipodi:namedview
   id="namedview9"
   pagecolor="#ffffff"
   bordercolor="#000000"
   borderopacity="0.25"
   inkscape:showpageshadow="2"
   inkscape:pageopacity="0.0"
   inkscape:pagecheckerboard="0"
   inkscape:deskcolor="#d1d1d1"
   inkscape:zoom="0.41162109"
   inkscape:cx="904.95848"
   inkscape:cy="-132.40332"
   inkscape:window-width="1920"
   inkscape:window-height="1043"
   inkscape:window-x="1920"
   inkscape:window-y="0"
   inkscape:window-maximized="1"
   inkscape:current-layer="svg9" />

<defs
   id="defs1">

	
	
	
	
	
	
	
	
	
</defs>
<path
   d="m 247.21818,19.12767 h -5.83356 c -3.13877,0 -5.68182,2.54586 -5.68182,5.68182 0,3.13877 2.54586,5.68182 5.68182,5.68182 h 0.14893 v 136.7627 l -86.79809,-0.29224 c -5.64248,0.23042 -10.44477,1.72253 -14.22984,4.40327 -1.65509,1.14648 -4.75452,2.74537 -6.91822,0.60977 -1.47806,-1.45839 -2.1356,-4.36393 -0.57886,-6.68499 4.32459,-5.87009 9.05944,-9.26738 20.48771,-9.26738 h 73.95077 c 3.13877,0 5.68182,-2.54586 5.68182,-5.68182 V 5.68182 C 233.12884,2.54305 230.58298,0 227.44702,0 H 153.49625 C 139.55865,0 131.32535,4.09136 126.45,9.19432 121.57746,4.09136 113.34135,0 99.406557,0 H 25.45298 c -3.13877,0 -5.68182,2.54586 -5.68182,5.68182 v 144.6588 c 0,3.13877 2.54586,5.68182 5.68182,5.68182 h 73.953577 c 11.422653,0 16.163123,3.4001 20.350023,9.07349 1.69162,2.51495 1.03689,5.42049 -0.44398,6.87888 -2.16651,2.1356 -5.26313,0.53952 -6.87326,-0.57886 -3.83284,-2.71165 -8.63513,-4.20376 -14.5277,-4.4398 l -86.54519,0.30067 V 30.49412 h 0.15174 c 3.13877,0 5.68182,-2.54586 5.68182,-5.68182 0,-3.13877 -2.54586,-5.68182 -5.68182,-5.68182 H 5.68182 C 2.54586,19.12768 0,21.67072 0,24.80949 v 148.14882 c 0,1.50897 0.60134,2.95893 1.67195,4.02673 1.07061,1.06218 2.39693,1.65228 4.02954,1.6579 l 91.99659,-0.32315 c 3.41134,0.1405 6.16233,0.93573 8.22206,2.3885 3.54341,2.45594 7.31162,3.67829 10.89718,3.67829 3.5406,0 6.86483,-1.25607 9.63549,-3.63052 2.76504,2.37164 6.08646,3.6249 9.62425,3.6249 3.59399,0 7.38468,-1.22797 10.95338,-3.70358 2.01196,-1.42467 4.76295,-2.21709 7.92139,-2.35197 l 92.24949,0.31753 c 0.006,0 0.014,0 0.0197,0 1.50335,0 2.94769,-0.59572 4.01268,-1.6579 1.0678,-1.0678 1.66914,-2.51776 1.66914,-4.02673 V 24.80949 c -0.003,-3.13877 -2.54867,-5.68182 -5.68463,-5.68182 z M 99.406557,144.6588 H 31.13761 V 11.36926 h 68.268947 c 16.345773,0 20.122413,6.4068 21.361623,9.52028 v 117.46362 c 0,3.13877 2.54586,5.68182 5.68182,5.68182 3.13596,0 5.68182,-2.54586 5.68182,-5.68182 V 20.87549 c 1.24483,-3.1191 5.05238,-9.50904 21.36162,-9.50904 h 68.26614 V 144.6588 h -68.26333 c -14.33381,0 -21.89833,4.93717 -27.03501,10.69486 -5.058,-5.69025 -12.62533,-10.69486 -27.054683,-10.69486 z"
   style="fill:#000000;fill-rule:nonzero;stroke:none;stroke-width:2.81;stroke-linecap:butt;stroke-linejoin:miter;stroke-miterlimit:10;stroke-dasharray:none"
   stroke-linecap="round"
   id="path1" /><path
   d="m 106.21375,47.24453 c -1.42748,0 -2.85777,-0.5339 -3.9621,-1.60732 C 96.01064,39.56761 87.13385,39.5929 79.308,39.5929 H 44.89393 c -3.13877,0 -5.68182,-2.54586 -5.68182,-5.68182 0,-3.13877 2.54586,-5.68182 5.68182,-5.68182 h 34.39721 c 9.01729,0.0028 21.32509,-0.0281 30.8819,9.26176 2.25081,2.18899 2.30139,5.78579 0.1124,8.0366 -1.10995,1.14086 -2.59082,1.71691 -4.07169,1.71691 z"
   style="fill:#000000;fill-rule:nonzero;stroke:none;stroke-width:2.81;stroke-linecap:butt;stroke-linejoin:miter;stroke-miterlimit:10;stroke-dasharray:none"
   stroke-linecap="round"
   id="path2" /><path
   d="m 106.21375,74.692607 c -1.42748,0 -2.85777,-0.5339 -3.9621,-1.60732 -6.24101,-6.0696 -15.1178,-6.05836 -22.94365,-6.04431 H 44.89393 c -3.13877,0 -5.68182,-2.54586 -5.68182,-5.681817 0,-3.13596 2.54586,-5.68182 5.68182,-5.68182 h 34.39721 c 9.01729,0.02529 21.32509,-0.0281 30.8819,9.261757 2.25081,2.18899 2.30139,5.78579 0.1124,8.0366 -1.10995,1.14086 -2.59082,1.71691 -4.07169,1.71691 z"
   style="fill:#000000;fill-rule:nonzero;stroke:none;stroke-width:2.81;stroke-linecap:butt;stroke-linejoin:miter;stroke-miterlimit:10;stroke-dasharray:none"
   stroke-linecap="round"
   id="path3" /><path
   d="m 106.21375,102.13788 c -1.43029,0 -2.85777,-0.53671 -3.9621,-1.61013 C 96.01345,94.460957 87.1479,94.503107 79.31362,94.483437 H 44.89674 c -3.13877,0 -5.68182,-2.54586 -5.68182,-5.68182 0,-3.13877 2.54586,-5.68182 5.68182,-5.68182 h 34.40002 c 8.98638,-0.0225 21.32509,-0.0309 30.87909,9.26176 2.248,2.18899 2.30139,5.78579 0.1124,8.036603 -1.11276,1.14648 -2.59363,1.71972 -4.0745,1.71972 z"
   style="fill:#000000;fill-rule:nonzero;stroke:none;stroke-width:2.81;stroke-linecap:butt;stroke-linejoin:miter;stroke-miterlimit:10;stroke-dasharray:none"
   stroke-linecap="round"
   id="path4" /><path
   d="m 106.21375,129.58596 c -1.42748,0 -2.85777,-0.53671 -3.9621,-1.61013 -6.24101,-6.0696 -15.10094,-6.08084 -22.94646,-6.04431 H 44.89674 c -3.13877,0 -5.68182,-2.54586 -5.68182,-5.68182 0,-3.13877 2.54586,-5.68182 5.68182,-5.68182 h 34.3944 c 9.01448,-0.0955 21.33071,-0.0309 30.88471,9.26176 2.25081,2.18618 2.30139,5.78579 0.1124,8.0366 -1.11276,1.14648 -2.59363,1.71972 -4.0745,1.71972 z"
   style="fill:#000000;fill-rule:nonzero;stroke:none;stroke-width:2.81;stroke-linecap:butt;stroke-linejoin:miter;stroke-miterlimit:10;stroke-dasharray:none"
   stroke-linecap="round"
   id="path5" /><path
   d="m 146.68344,47.24453 c -1.48087,0 -2.96174,-0.57605 -4.0745,-1.72253 -2.18899,-2.25081 -2.13841,-5.84761 0.1124,-8.0366 9.55681,-9.29267 21.86461,-9.26457 30.88471,-9.26176 h 34.3944 c 3.13877,0 5.68182,2.54586 5.68182,5.68182 0,3.13877 -2.54586,5.68182 -5.68182,5.68182 h -34.41126 c -7.85395,-0.0028 -16.70264,-0.02248 -22.94365,6.04431 -1.10433,1.07904 -2.53181,1.61294 -3.9621,1.61294 z"
   style="fill:#000000;fill-rule:nonzero;stroke:none;stroke-width:2.81;stroke-linecap:butt;stroke-linejoin:miter;stroke-miterlimit:10;stroke-dasharray:none"
   stroke-linecap="round"
   id="path6" /><path
   d="m 146.68344,74.692607 c -1.48087,0 -2.96174,-0.57605 -4.0745,-1.72253 -2.18899,-2.25081 -2.13841,-5.84761 0.1124,-8.0366 9.55681,-9.292667 21.86461,-9.239277 30.88471,-9.261757 h 34.3944 c 3.13877,0 5.68182,2.54586 5.68182,5.68182 0,3.135957 -2.54586,5.681817 -5.68182,5.681817 h -34.41126 c -7.85395,-0.0169 -16.70264,-0.0253 -22.94365,6.04431 -1.10433,1.07904 -2.53181,1.61294 -3.9621,1.61294 z"
   style="fill:#000000;fill-rule:nonzero;stroke:none;stroke-width:2.81;stroke-linecap:butt;stroke-linejoin:miter;stroke-miterlimit:10;stroke-dasharray:none"
   stroke-linecap="round"
   id="path7" /><path
   d="m 146.68344,102.13788 c -1.48087,0 -2.96174,-0.57324 -4.0745,-1.71972 -2.18899,-2.250813 -2.13841,-5.847613 0.1124,-8.036603 9.554,-9.29267 21.89833,-9.27581 30.87909,-9.26176 h 34.40002 c 3.13877,0 5.68182,2.54586 5.68182,5.68182 0,3.13877 -2.54586,5.68182 -5.68182,5.68182 h -34.41688 c -7.84833,0 -16.69983,-0.0225 -22.93803,6.044313 -1.10433,1.07623 -2.53181,1.61013 -3.9621,1.61013 z"
   style="fill:#000000;fill-rule:nonzero;stroke:none;stroke-width:2.81;stroke-linecap:butt;stroke-linejoin:miter;stroke-miterlimit:10;stroke-dasharray:none"
   stroke-linecap="round"
   id="path8" /><path
   d="m 146.68344,129.58596 c -1.48087,0 -2.96174,-0.57324 -4.0745,-1.71972 -2.18899,-2.25081 -2.13841,-5.85042 0.1124,-8.0366 9.55681,-9.29548 21.89271,-9.31234 30.88752,-9.26176 h 34.3944 c 3.13877,0 5.68182,2.54586 5.68182,5.68182 0,3.13877 -2.54586,5.68182 -5.68182,5.68182 H 173.592 c -7.7837,-0.045 -16.70264,-0.0253 -22.94646,6.04431 -1.10433,1.07623 -2.53181,1.61013 -3.9621,1.61013 z"
   style="fill:#000000;fill-rule:nonzero;stroke:none;stroke-width:2.81;stroke-linecap:butt;stroke-linejoin:miter;stroke-miterlimit:10;stroke-dasharray:none"
   stroke-linecap="round"
   id="path9" />
<text
   xml:space="preserve"
   style="font-weight:bold;font-size:90.6667px;font-family:Quicksand;-inkscape-font-specification:'Quicksand Bold';fill:#000000"
   x="271.70261"
   y="84.284607"
   id="text9"><tspan
     sodipodi:role="line"
     id="tspan9"
     x="271.70261"
     y="84.284607"
     style="font-size:90.6667px">Hello</tspan></text><text
   xml:space="preserve"
   style="font-style:normal;font-variant:normal;font-weight:500;font-stretch:normal;font-size:85.3333px;font-family:Quicksand;-inkscape-font-specification:'Quicksand Medium';fill:#000000"
   x="302.09003"
   y="166.17686"
   id="text10"><tspan
     sodipodi:role="line"
     id="tspan10"
     x="302.09003"
     y="166.17686"
     style="font-style:normal;font-variant:normal;font-weight:500;font-stretch:normal;font-size:85.3333px;font-family:Quicksand;-inkscape-font-specification:'Quicksand Medium'">Dict</tspan></text></svg>
