<svg version="1.1" width="213.19907" height="80" viewBox="0 0 491.38928 184.38703" xmlns="http://www.w3.org/2000/svg">
   <defs id="defs1" />
   <path d="m 247.21818,19.12767 h -5.83356 c -3.13877,0 -5.68182,2.54586 -5.68182,5.68182 0,3.13877 2.54586,5.68182 5.68182,5.68182 h 0.14893 v 136.7627 l -86.79809,-0.29224 c -5.64248,0.23042 -10.44477,1.72253 -14.22984,4.40327 -1.65509,1.14648 -4.75452,2.74537 -6.91822,0.60977 -1.47806,-1.45839 -2.1356,-4.36393 -0.57886,-6.68499 4.32459,-5.87009 9.05944,-9.26738 20.48771,-9.26738 h 73.95077 c 3.13877,0 5.68182,-2.54586 5.68182,-5.68182 V 5.68182 C 233.12884,2.54305 230.58298,0 227.44702,0 H 153.49625 C 139.55865,0 131.32535,4.09136 126.45,9.19432 121.57746,4.09136 113.34135,0 99.406557,0 H 25.45298 c -3.13877,0 -5.68182,2.54586 -5.68182,5.68182 v 144.6588 c 0,3.13877 2.54586,5.68182 5.68182,5.68182 h 73.953577 c 11.422653,0 16.163123,3.4001 20.350023,9.07349 1.69162,2.51495 1.03689,5.42049 -0.44398,6.87888 -2.16651,2.1356 -5.26313,0.53952 -6.87326,-0.57886 -3.83284,-2.71165 -8.63513,-4.20376 -14.5277,-4.4398 l -86.54519,0.30067 V 30.49412 h 0.15174 c 3.13877,0 5.68182,-2.54586 5.68182,-5.68182 0,-3.13877 -2.54586,-5.68182 -5.68182,-5.68182 H 5.68182 C 2.54586,19.12768 0,21.67072 0,24.80949 v 148.14882 c 0,1.50897 0.60134,2.95893 1.67195,4.02673 1.07061,1.06218 2.39693,1.65228 4.02954,1.6579 l 91.99659,-0.32315 c 3.41134,0.1405 6.16233,0.93573 8.22206,2.3885 3.54341,2.45594 7.31162,3.67829 10.89718,3.67829 3.5406,0 6.86483,-1.25607 9.63549,-3.63052 2.76504,2.37164 6.08646,3.6249 9.62425,3.6249 3.59399,0 7.38468,-1.22797 10.95338,-3.70358 2.01196,-1.42467 4.76295,-2.21709 7.92139,-2.35197 l 92.24949,0.31753 c 0.006,0 0.014,0 0.0197,0 1.50335,0 2.94769,-0.59572 4.01268,-1.6579 1.0678,-1.0678 1.66914,-2.51776 1.66914,-4.02673 V 24.80949 c -0.003,-3.13877 -2.54867,-5.68182 -5.68463,-5.68182 z M 99.406557,144.6588 H 31.13761 V 11.36926 h 68.268947 c 16.345773,0 20.122413,6.4068 21.361623,9.52028 v 117.46362 c 0,3.13877 2.54586,5.68182 5.68182,5.68182 3.13596,0 5.68182,-2.54586 5.68182,-5.68182 V 20.87549 c 1.24483,-3.1191 5.05238,-9.50904 21.36162,-9.50904 h 68.26614 V 144.6588 h -68.26333 c -14.33381,0 -21.89833,4.93717 -27.03501,10.69486 -5.058,-5.69025 -12.62533,-10.69486 -27.054683,-10.69486 z" style="fill-rule:nonzero;stroke:none;stroke-width:2.81;stroke-linecap:butt;stroke-linejoin:miter;stroke-miterlimit:10;stroke-dasharray:none" stroke-linecap="round" />
   <path d="m 106.21375,47.24453 c -1.42748,0 -2.85777,-0.5339 -3.9621,-1.60732 C 96.01064,39.56761 87.13385,39.5929 79.308,39.5929 H 44.89393 c -3.13877,0 -5.68182,-2.54586 -5.68182,-5.68182 0,-3.13877 2.54586,-5.68182 5.68182,-5.68182 h 34.39721 c 9.01729,0.0028 21.32509,-0.0281 30.8819,9.26176 2.25081,2.18899 2.30139,5.78579 0.1124,8.0366 -1.10995,1.14086 -2.59082,1.71691 -4.07169,1.71691 z" style="fill-rule:nonzero;stroke:none;stroke-width:2.81;stroke-linecap:butt;stroke-linejoin:miter;stroke-miterlimit:10;stroke-dasharray:none" stroke-linecap="round" />
   <path d="m 106.21375,74.692607 c -1.42748,0 -2.85777,-0.5339 -3.9621,-1.60732 -6.24101,-6.0696 -15.1178,-6.05836 -22.94365,-6.04431 H 44.89393 c -3.13877,0 -5.68182,-2.54586 -5.68182,-5.681817 0,-3.13596 2.54586,-5.68182 5.68182,-5.68182 h 34.39721 c 9.01729,0.02529 21.32509,-0.0281 30.8819,9.261757 2.25081,2.18899 2.30139,5.78579 0.1124,8.0366 -1.10995,1.14086 -2.59082,1.71691 -4.07169,1.71691 z" style="fill-rule:nonzero;stroke:none;stroke-width:2.81;stroke-linecap:butt;stroke-linejoin:miter;stroke-miterlimit:10;stroke-dasharray:none" stroke-linecap="round" />
   <path d="m 106.21375,102.13788 c -1.43029,0 -2.85777,-0.53671 -3.9621,-1.61013 C 96.01345,94.460957 87.1479,94.503107 79.31362,94.483437 H 44.89674 c -3.13877,0 -5.68182,-2.54586 -5.68182,-5.68182 0,-3.13877 2.54586,-5.68182 5.68182,-5.68182 h 34.40002 c 8.98638,-0.0225 21.32509,-0.0309 30.87909,9.26176 2.248,2.18899 2.30139,5.78579 0.1124,8.036603 -1.11276,1.14648 -2.59363,1.71972 -4.0745,1.71972 z" style="fill-rule:nonzero;stroke:none;stroke-width:2.81;stroke-linecap:butt;stroke-linejoin:miter;stroke-miterlimit:10;stroke-dasharray:none" stroke-linecap="round" />
   <path d="m 106.21375,129.58596 c -1.42748,0 -2.85777,-0.53671 -3.9621,-1.61013 -6.24101,-6.0696 -15.10094,-6.08084 -22.94646,-6.04431 H 44.89674 c -3.13877,0 -5.68182,-2.54586 -5.68182,-5.68182 0,-3.13877 2.54586,-5.68182 5.68182,-5.68182 h 34.3944 c 9.01448,-0.0955 21.33071,-0.0309 30.88471,9.26176 2.25081,2.18618 2.30139,5.78579 0.1124,8.0366 -1.11276,1.14648 -2.59363,1.71972 -4.0745,1.71972 z" style="fill-rule:nonzero;stroke:none;stroke-width:2.81;stroke-linecap:butt;stroke-linejoin:miter;stroke-miterlimit:10;stroke-dasharray:none" stroke-linecap="round" />
   <path d="m 146.68344,47.24453 c -1.48087,0 -2.96174,-0.57605 -4.0745,-1.72253 -2.18899,-2.25081 -2.13841,-5.84761 0.1124,-8.0366 9.55681,-9.29267 21.86461,-9.26457 30.88471,-9.26176 h 34.3944 c 3.13877,0 5.68182,2.54586 5.68182,5.68182 0,3.13877 -2.54586,5.68182 -5.68182,5.68182 h -34.41126 c -7.85395,-0.0028 -16.70264,-0.02248 -22.94365,6.04431 -1.10433,1.07904 -2.53181,1.61294 -3.9621,1.61294 z" style="fill-rule:nonzero;stroke:none;stroke-width:2.81;stroke-linecap:butt;stroke-linejoin:miter;stroke-miterlimit:10;stroke-dasharray:none" stroke-linecap="round" />
   <path d="m 146.68344,74.692607 c -1.48087,0 -2.96174,-0.57605 -4.0745,-1.72253 -2.18899,-2.25081 -2.13841,-5.84761 0.1124,-8.0366 9.55681,-9.292667 21.86461,-9.239277 30.88471,-9.261757 h 34.3944 c 3.13877,0 5.68182,2.54586 5.68182,5.68182 0,3.135957 -2.54586,5.681817 -5.68182,5.681817 h -34.41126 c -7.85395,-0.0169 -16.70264,-0.0253 -22.94365,6.04431 -1.10433,1.07904 -2.53181,1.61294 -3.9621,1.61294 z" style="fill-rule:nonzero;stroke:none;stroke-width:2.81;stroke-linecap:butt;stroke-linejoin:miter;stroke-miterlimit:10;stroke-dasharray:none" stroke-linecap="round" />
   <path d="m 146.68344,102.13788 c -1.48087,0 -2.96174,-0.57324 -4.0745,-1.71972 -2.18899,-2.250813 -2.13841,-5.847613 0.1124,-8.036603 9.554,-9.29267 21.89833,-9.27581 30.87909,-9.26176 h 34.40002 c 3.13877,0 5.68182,2.54586 5.68182,5.68182 0,3.13877 -2.54586,5.68182 -5.68182,5.68182 h -34.41688 c -7.84833,0 -16.69983,-0.0225 -22.93803,6.044313 -1.10433,1.07623 -2.53181,1.61013 -3.9621,1.61013 z" style="fill-rule:nonzero;stroke:none;stroke-width:2.81;stroke-linecap:butt;stroke-linejoin:miter;stroke-miterlimit:10;stroke-dasharray:none" stroke-linecap="round" />
   <path d="m 146.68344,129.58596 c -1.48087,0 -2.96174,-0.57324 -4.0745,-1.71972 -2.18899,-2.25081 -2.13841,-5.85042 0.1124,-8.0366 9.55681,-9.29548 21.89271,-9.31234 30.88752,-9.26176 h 34.3944 c 3.13877,0 5.68182,2.54586 5.68182,5.68182 0,3.13877 -2.54586,5.68182 -5.68182,5.68182 H 173.592 c -7.7837,-0.045 -16.70264,-0.0253 -22.94646,6.04431 -1.10433,1.07623 -2.53181,1.61013 -3.9621,1.61013 z" style="fill-rule:nonzero;stroke:none;stroke-width:2.81;stroke-linecap:butt;stroke-linejoin:miter;stroke-miterlimit:10;stroke-dasharray:none" stroke-linecap="round" />
   <path d="m 284.30528,20.817915 q 2.176,0 3.808,1.632001 1.72267,1.541334 1.72267,3.898668 v 52.405354 q 0,2.357334 -1.72267,3.989335 -1.72267,1.541334 -3.98934,1.541334 -2.53866,0 -4.08,-1.541334 -1.54133,-1.632001 -1.54133,-3.989335 V 26.348584 q 0,-2.357334 1.632,-3.898668 1.632,-1.632001 4.17067,-1.632001 z m 40.16535,0 q 2.53866,0 4.08,1.632001 1.54133,1.541334 1.54133,3.898668 v 52.405354 q 0,2.357334 -1.632,3.989335 -1.54133,1.541334 -4.17067,1.541334 -2.176,0 -3.89866,-1.541334 -1.63201,-1.632001 -1.63201,-3.989335 V 26.348584 q 0,-2.357334 1.72267,-3.898668 1.72267,-1.632001 3.98934,-1.632001 z m -40.43735,26.384011 h 40.43735 v 10.42667 h -40.43735 z m 81.60002,37.989348 q -7.70667,0 -13.41867,-3.173335 -5.62134,-3.264001 -8.70401,-8.79467 -2.992,-5.530669 -2.992,-12.512005 0,-8.160003 3.264,-13.872005 3.35467,-5.802669 8.70401,-8.885337 5.34933,-3.082668 11.33333,-3.082668 4.624,0 8.70401,1.904001 4.17066,1.904001 7.344,5.258669 3.17333,3.264001 4.98667,7.616003 1.904,4.352001 1.904,9.248003 -0.0907,2.176001 -1.72267,3.536002 -1.632,1.36 -3.808,1.36 h -34.63468 l -2.72,-9.06667 h 33.27468 l -1.99467,1.813334 v -2.448001 q -0.18133,-2.629334 -1.904,-4.714668 -1.632,-2.085335 -4.17067,-3.264002 -2.448,-1.269334 -5.25867,-1.269334 -2.72,0 -5.07733,0.725334 -2.35734,0.725334 -4.08,2.448001 -1.72267,1.722667 -2.72,4.624002 -0.99734,2.901334 -0.99734,7.344003 0,4.896002 1.99467,8.341336 2.08533,3.354668 5.25867,5.168002 3.264,1.722668 6.89067,1.722668 3.35466,0 5.34933,-0.544001 1.99467,-0.544 3.17334,-1.269333 1.26933,-0.816001 2.26666,-1.360001 1.63201,-0.816 3.08267,-0.816 1.99467,0 3.264,1.36 1.36,1.360001 1.36,3.173335 0,2.448001 -2.53866,4.442668 -2.35734,1.994668 -6.61867,3.536002 -4.26134,1.450667 -8.79467,1.450667 z m 42.43203,-6.437336 q 0,2.357334 -1.632,3.989335 -1.54134,1.541334 -3.89867,1.541334 -2.26667,0 -3.808,-1.541334 -1.54133,-1.632001 -1.54133,-3.989335 V 22.721916 q 0,-2.357334 1.54133,-3.898668 1.632,-1.632001 3.98933,-1.632001 2.35734,0 3.80801,1.632001 1.54133,1.541334 1.54133,3.898668 z m 24.48005,0 q 0,2.357334 -1.632,3.989335 -1.54134,1.541334 -3.89867,1.541334 -2.26667,0 -3.808,-1.541334 -1.54134,-1.632001 -1.54134,-3.989335 V 22.721916 q 0,-2.357334 1.54134,-3.898668 1.632,-1.632001 3.98933,-1.632001 2.35734,0 3.808,1.632001 1.54134,1.541334 1.54134,3.898668 z m 58.84271,-18.677341 q 0,7.43467 -3.35467,13.146672 -3.264,5.621336 -8.88533,8.79467 -5.53067,3.173335 -12.42134,3.173335 -6.89067,0 -12.51201,-3.173335 -5.53067,-3.173334 -8.88533,-8.79467 -3.26401,-5.712002 -3.26401,-13.146672 0,-7.434669 3.26401,-13.056005 3.35466,-5.712002 8.88533,-8.885337 5.62134,-3.264001 12.51201,-3.264001 6.89067,0 12.42134,3.264001 5.62133,3.173335 8.88533,8.885337 3.35467,5.621336 3.35467,13.056005 z m -10.88,0 q 0,-4.624001 -1.904,-7.978669 -1.81334,-3.445335 -4.98667,-5.349336 -3.08267,-1.904001 -6.89067,-1.904001 -3.808,0 -6.98134,1.904001 -3.08267,1.904001 -4.98667,5.349336 -1.81333,3.354668 -1.81333,7.978669 0,4.533336 1.81333,7.97867 1.904,3.354668 4.98667,5.258669 3.17334,1.904001 6.98134,1.904001 3.808,0 6.89067,-1.904001 3.17333,-1.904001 4.98667,-5.258669 1.904,-3.445334 1.904,-7.97867 z" aria-label="Hello" />
   <path d="m 334.34601,106.44356 q 6.22933,0 10.92267,2.38933 4.77866,2.304 7.93599,6.48533 3.15733,4.18133 4.69333,9.64266 1.62134,5.376 1.62134,11.34933 0,8.192 -2.816,15.01866 -2.816,6.74133 -8.36267,10.83733 -5.54666,4.01066 -13.99466,4.01066 h -21.33332 q -1.45067,0 -2.47467,-1.02399 -0.93866,-1.024 -0.93866,-2.47467 v -52.82131 q 0,-1.45067 0.93866,-2.38933 1.024,-1.024 2.47467,-1.024 z m -0.85333,53.07731 q 6.57066,0 10.66666,-3.15733 4.18133,-3.15734 6.05867,-8.448 1.96266,-5.29067 1.96266,-11.60533 0,-4.608 -1.10933,-8.78933 -1.024,-4.26666 -3.328,-7.50933 -2.21866,-3.24266 -5.80266,-5.12 -3.49867,-1.87733 -8.448,-1.87733 h -17.49333 l 0.68267,-0.68267 v 48.04265 l -0.512,-0.85333 z m 42.75202,3.15733 q 0,1.45067 -1.024,2.47467 -0.93867,1.02399 -2.38933,1.02399 -1.536,0 -2.47467,-1.02399 -0.93866,-1.024 -0.93866,-2.47467 v -37.88798 q 0,-1.45067 0.93866,-2.38934 1.024,-1.024 2.47467,-1.024 1.45066,0 2.38933,1.024 1.024,0.93867 1.024,2.38934 z m -3.41333,-47.01865 q -2.13334,0 -3.15733,-0.85333 -1.024,-0.85333 -1.024,-2.64533 v -1.19467 q 0,-1.792 1.10933,-2.64533 1.10933,-0.85333 3.15733,-0.85333 2.048,0 3.072,0.85333 1.024,0.85333 1.024,2.64533 v 1.19467 q 0,1.792 -1.10933,2.64533 -1.024,0.85333 -3.072,0.85333 z m 35.32804,5.29067 q 4.352,0 7.85066,0.93866 3.49867,0.93867 5.54667,2.56 2.048,1.62133 2.048,3.66933 0,1.10934 -0.768,2.13334 -0.768,1.024 -2.048,1.024 -1.19467,0 -1.96267,-0.42667 -0.68267,-0.42667 -1.36533,-1.10933 -0.59733,-0.68267 -1.70667,-1.19467 -1.024,-0.59733 -2.98666,-0.93867 -1.96267,-0.34133 -3.92533,-0.34133 -4.69334,0 -8.27733,2.21867 -3.49867,2.21866 -5.54667,5.97333 -2.048,3.75466 -2.048,8.53333 0,4.77866 1.96267,8.53333 1.96266,3.75466 5.46133,5.97333 3.49866,2.21866 8.10666,2.21866 2.98667,0 4.77867,-0.512 1.792,-0.512 2.98666,-1.19466 1.536,-0.85334 2.304,-1.70667 0.85333,-0.85333 2.21867,-0.85333 1.45066,0 2.21866,0.93866 0.85334,0.93867 0.85334,2.304 0,1.536 -2.13334,3.24267 -2.13333,1.70667 -5.80266,2.90133 -3.584,1.19467 -8.192,1.19467 -6.48533,0 -11.34933,-2.98667 -4.86399,-3.072 -7.59466,-8.27733 -2.64533,-5.29066 -2.64533,-11.77599 0,-6.48533 2.73066,-11.69066 2.816,-5.20534 7.76533,-8.27733 4.94933,-3.072 11.52,-3.072 z m 22.95458,1.36533 h 20.05332 q 1.36533,0 2.21867,0.93867 0.93866,0.93866 0.93866,2.21866 0,1.36533 -0.93866,2.304 -0.85334,0.85333 -2.21867,0.85333 h -20.05332 q -1.28,0 -2.21867,-0.93866 -0.93866,-0.93867 -0.93866,-2.304 0,-1.28 0.93866,-2.13333 0.93867,-0.93867 2.21867,-0.93867 z m 8.95999,-11.60533 q 1.45067,0 2.38934,1.024 0.93866,0.93867 0.93866,2.38933 v 41.21599 q 0,2.04799 0.59734,3.07199 0.59733,1.024 1.53599,1.45067 1.024,0.34133 1.96267,0.34133 0.85333,0 1.45067,-0.256 0.68266,-0.34133 1.536,-0.34133 0.85333,0 1.536,0.85333 0.76799,0.768 0.76799,2.048 0,1.536 -1.79199,2.64534 -1.792,1.02399 -4.01067,1.02399 -1.19467,0 -2.98666,-0.17066 -1.70667,-0.17067 -3.41334,-1.10933 -1.70666,-0.93867 -2.90133,-3.072 -1.10933,-2.21867 -1.10933,-6.144 v -41.55732 q 0,-1.45066 1.024,-2.38933 1.024,-1.024 2.47466,-1.024 z" aria-label="Dict" />
</svg>