<svg xmlns="http://www.w3.org/2000/svg" width="213.199" height="80" viewBox="0 0 491.389 184.387" role="img" aria-label="Hello Dict Logo"><path d="M334.346 106.444q6.229 0 10.923 2.389 4.779 2.304 7.936 6.485 3.157 4.181 4.693 9.643 1.621 5.376 1.621 11.349 0 8.192-2.816 15.019-2.816 6.741-8.363 10.837-5.547 4.011-13.995 4.011h-21.333q-1.451 0-2.475-1.024-.939-1.024-.939-2.475v-52.821q0-1.451.939-2.389 1.024-1.024 2.475-1.024zm-.853 53.077q6.571 0 10.667-3.157 4.181-3.157 6.059-8.448 1.963-5.291 1.963-11.605 0-4.608-1.109-8.789-1.024-4.267-3.328-7.509-2.219-3.243-5.803-5.12-3.499-1.877-8.448-1.877h-17.493l.683-.683v48.043l-.512-.853zm42.752 3.157q0 1.451-1.024 2.475-.939 1.024-2.389 1.024-1.536 0-2.475-1.024-.939-1.024-.939-2.475V124.79q0-1.451.939-2.389 1.024-1.024 2.475-1.024 1.451 0 2.389 1.024 1.024.939 1.024 2.389zm-3.413-47.019q-2.133 0-3.157-.853-1.024-.853-1.024-2.645v-1.195q0-1.792 1.109-2.645 1.109-.853 3.157-.853 2.048 0 3.072.853 1.024.853 1.024 2.645v1.195q0 1.792-1.109 2.645-1.024.853-3.072.853zm35.328 5.291q4.352 0 7.851.939 3.499.939 5.547 2.56 2.048 1.621 2.048 3.669 0 1.109-.768 2.133-.768 1.024-2.048 1.024-1.195 0-1.963-.427-.683-.427-1.365-1.109-.597-.683-1.707-1.195-1.024-.597-2.987-.939-1.963-.341-3.925-.341-4.693 0-8.277 2.219-3.499 2.219-5.547 5.973-2.048 3.755-2.048 8.533 0 4.779 1.963 8.533 1.963 3.755 5.461 5.973 3.499 2.219 8.107 2.219 2.987 0 4.779-.512 1.792-.512 2.987-1.195 1.536-.853 2.304-1.707.853-.853 2.219-.853 1.451 0 2.219.939.853.939.853 2.304 0 1.536-2.133 3.243-2.133 1.707-5.803 2.901-3.584 1.195-8.192 1.195-6.485 0-11.349-2.987-4.864-3.072-7.595-8.277-2.645-5.291-2.645-11.776 0-6.485 2.731-11.691 2.816-5.205 7.765-8.277 4.949-3.072 11.52-3.072zm22.955 1.365h20.053q1.365 0 2.219.939.939.939.939 2.219 0 1.365-.939 2.304-.853.853-2.219.853h-20.053q-1.28 0-2.219-.939-.939-.939-.939-2.304 0-1.28.939-2.133.939-.939 2.219-.939zm8.96-11.605q1.451 0 2.389 1.024.939.939.939 2.389v41.216q0 2.048.597 3.072.597 1.024 1.536 1.451 1.024.341 1.963.341.853 0 1.451-.256.683-.341 1.536-.341.853 0 1.536.853.768.768.768 2.048 0 1.536-1.792 2.645-1.792 1.024-4.011 1.024-1.195 0-2.987-.171-1.707-.171-3.413-1.109-1.707-.939-2.901-3.072-1.109-2.219-1.109-6.144v-41.557q0-1.451 1.024-2.389 1.024-1.024 2.475-1.024zM284.305 20.818q2.176 0 3.808 1.632 1.723 1.541 1.723 3.899v52.405q0 2.357-1.723 3.989-1.723 1.541-3.989 1.541-2.539 0-4.08-1.541-1.541-1.632-1.541-3.989V26.349q0-2.357 1.632-3.899 1.632-1.632 4.171-1.632zm40.165 0q2.539 0 4.08 1.632 1.541 1.541 1.541 3.899v52.405q0 2.357-1.632 3.989-1.541 1.541-4.171 1.541-2.176 0-3.899-1.541-1.632-1.632-1.632-3.989V26.349q0-2.357 1.723-3.899 1.723-1.632 3.989-1.632zm-40.437 26.384h40.437v10.427h-40.437zm81.6 37.989q-7.707 0-13.419-3.173-5.621-3.264-8.704-8.795-2.992-5.531-2.992-12.512 0-8.16 3.264-13.872 3.355-5.803 8.704-8.885 5.349-3.083 11.333-3.083 4.624 0 8.704 1.904 4.171 1.904 7.344 5.259 3.173 3.264 4.987 7.616 1.904 4.352 1.904 9.248-.091 2.176-1.723 3.536-1.632 1.36-3.808 1.36h-34.635l-2.72-9.067h33.275l-1.995 1.813v-2.448q-.181-2.629-1.904-4.715-1.632-2.085-4.171-3.264-2.448-1.269-5.259-1.269-2.72 0-5.077.725-2.357.725-4.08 2.448-1.723 1.723-2.72 4.624-.997 2.901-.997 7.344 0 4.896 1.995 8.341 2.085 3.355 5.259 5.168 3.264 1.723 6.891 1.723 3.355 0 5.349-.544 1.995-.544 3.173-1.269 1.269-.816 2.267-1.36 1.632-.816 3.083-.816 1.995 0 3.264 1.36 1.36 1.36 1.36 3.173 0 2.448-2.539 4.443-2.357 1.995-6.619 3.536-4.261 1.451-8.795 1.451zm42.432-6.437q0 2.357-1.632 3.989-1.541 1.541-3.899 1.541-2.267 0-3.808-1.541-1.541-1.632-1.541-3.989V22.722q0-2.357 1.541-3.899 1.632-1.632 3.989-1.632 2.357 0 3.808 1.632 1.541 1.541 1.541 3.899zm24.48 0q0 2.357-1.632 3.989-1.541 1.541-3.899 1.541-2.267 0-3.808-1.541-1.541-1.632-1.541-3.989V22.722q0-2.357 1.541-3.899 1.632-1.632 3.989-1.632 2.357 0 3.808 1.632 1.541 1.541 1.541 3.899zm58.843-18.677q0 7.435-3.355 13.147-3.264 5.621-8.885 8.795-5.531 3.173-12.421 3.173-6.891 0-12.512-3.173-5.531-3.173-8.885-8.795-3.264-5.712-3.264-13.147 0-7.435 3.264-13.056 3.355-5.712 8.885-8.885 5.621-3.264 12.512-3.264 6.891 0 12.421 3.264 5.621 3.173 8.885 8.885 3.355 5.621 3.355 13.056zm-10.88 0q0-4.624-1.904-7.979-1.813-3.445-4.987-5.349-3.083-1.904-6.891-1.904-3.808 0-6.981 1.904-3.083 1.904-4.987 5.349-1.813 3.355-1.813 7.979 0 4.533 1.813 7.979 1.904 3.355 4.987 5.259 3.173 1.904 6.981 1.904 3.808 0 6.891-1.904 3.173-1.904 4.987-5.259 1.904-3.445 1.904-7.979zm-333.825 69.509a5.66 5.66 0 0 1-4.075-1.72c-2.189-2.251-2.138-5.85.112-8.037 9.557-9.295 21.893-9.312 30.888-9.262h34.394c3.139 0 5.682 2.546 5.682 5.682s-2.546 5.682-5.682 5.682h-34.411c-7.784-.045-16.703-.025-22.946 6.044-1.104 1.076-2.532 1.61-3.962 1.61zm0-27.448a5.66 5.66 0 0 1-4.075-1.72c-2.189-2.251-2.138-5.848.112-8.037 9.554-9.293 21.898-9.276 30.879-9.262H208c3.139 0 5.682 2.546 5.682 5.682s-2.546 5.682-5.682 5.682h-34.417c-7.848 0-16.7-.022-22.938 6.044-1.104 1.076-2.532 1.61-3.962 1.61zm0-27.445a5.66 5.66 0 0 1-4.075-1.723c-2.189-2.251-2.138-5.848.112-8.037 9.557-9.293 21.865-9.239 30.885-9.262H208c3.139 0 5.682 2.546 5.682 5.682s-2.546 5.682-5.682 5.682h-34.411c-7.854-.017-16.703-.025-22.944 6.044-1.104 1.079-2.532 1.613-3.962 1.613zm0-27.448a5.66 5.66 0 0 1-4.075-1.723c-2.189-2.251-2.138-5.848.112-8.037 9.557-9.293 21.865-9.265 30.885-9.262H208c3.139 0 5.682 2.546 5.682 5.682s-2.546 5.682-5.682 5.682h-34.411c-7.854-.003-16.703-.022-22.944 6.044-1.104 1.079-2.532 1.613-3.962 1.613zm-40.47 82.341a5.67 5.67 0 0 1-3.962-1.61c-6.241-6.07-15.101-6.081-22.946-6.044H44.897c-3.139 0-5.682-2.546-5.682-5.682s2.546-5.682 5.682-5.682h34.394c9.014-.096 21.331-.031 30.885 9.262 2.251 2.186 2.301 5.786.112 8.037a5.66 5.66 0 0 1-4.075 1.72zm0-27.448c-1.43 0-2.858-.537-3.962-1.61-6.238-6.067-15.104-6.025-22.938-6.044H44.897c-3.139 0-5.682-2.546-5.682-5.682s2.546-5.682 5.682-5.682h34.4c8.986-.022 21.325-.031 30.879 9.262 2.248 2.189 2.301 5.786.112 8.037a5.66 5.66 0 0 1-4.075 1.72zm0-27.445c-1.427 0-2.858-.534-3.962-1.607-6.241-6.07-15.118-6.058-22.944-6.044H44.894c-3.139 0-5.682-2.546-5.682-5.682s2.546-5.682 5.682-5.682h34.397c9.017.025 21.325-.028 30.882 9.262 2.251 2.189 2.301 5.786.112 8.037-1.11 1.141-2.591 1.717-4.072 1.717zm0-27.448c-1.427 0-2.858-.534-3.962-1.607-6.241-6.07-15.118-6.044-22.944-6.044H44.894c-3.139 0-5.682-2.546-5.682-5.682s2.546-5.682 5.682-5.682h34.397c9.017.003 21.325-.028 30.882 9.262 2.251 2.189 2.301 5.786.112 8.037-1.11 1.141-2.591 1.717-4.072 1.717zm141.004-28.117h-5.834c-3.139 0-5.682 2.546-5.682 5.682s2.546 5.682 5.682 5.682h.149v136.763l-86.798-.292c-5.642.23-10.445 1.723-14.23 4.403-1.655 1.146-4.755 2.745-6.918.61-1.478-1.458-2.136-4.364-.579-6.685 4.325-5.87 9.059-9.267 20.488-9.267h73.951c3.139 0 5.682-2.546 5.682-5.682V5.682c0-3.139-2.546-5.682-5.682-5.682h-73.951c-13.938 0-22.171 4.091-27.046 9.194C121.577 4.091 113.341 0 99.407 0H25.453c-3.139 0-5.682 2.546-5.682 5.682v144.659c0 3.139 2.546 5.682 5.682 5.682h73.954c11.423 0 16.163 3.4 20.35 9.073 1.692 2.515 1.037 5.42-.444 6.879-2.167 2.136-5.263.54-6.873-.579-3.833-2.712-8.635-4.204-14.528-4.44l-86.545.301V30.494h.152c3.139 0 5.682-2.546 5.682-5.682s-2.546-5.682-5.682-5.682H5.682A5.68 5.68 0 0 0 0 24.809v148.149a5.69 5.69 0 0 0 1.672 4.027c1.071 1.062 2.397 1.652 4.03 1.658l91.997-.323c3.411.141 6.162.936 8.222 2.388 3.543 2.456 7.312 3.678 10.897 3.678 3.541 0 6.865-1.256 9.635-3.631 2.765 2.372 6.086 3.625 9.624 3.625 3.594 0 7.385-1.228 10.953-3.704 2.012-1.425 4.763-2.217 7.921-2.352l92.249.318c1.523 0 2.967-.596 4.032-1.658a5.7 5.7 0 0 0 1.669-4.027V24.809a5.69 5.69 0 0 0-5.685-5.682zM99.407 144.659H31.138V11.369h68.269c16.346 0 20.122 6.407 21.362 9.52v117.464c0 3.139 2.546 5.682 5.682 5.682s5.682-2.546 5.682-5.682V20.875c1.245-3.119 5.052-9.509 21.362-9.509h68.266v133.292h-68.263c-14.334 0-21.898 4.937-27.035 10.695-5.058-5.69-12.625-10.695-27.055-10.695z"/></svg>